<svg width="14" height="8" viewBox="0 0 14 8" fill="none" xmlns="http://www.w3.org/2000/svg">
<path fill-rule="evenodd" clip-rule="evenodd" d="M0.261916 0.314651C-0.0873057 0.663873 -0.0873054 1.23007 0.261917 1.5793L6.35077 7.66815C6.35625 7.67393 6.36183 7.67965 6.3675 7.68532C6.54217 7.85999 6.77111 7.9473 7.00004 7.94724C7.22897 7.9473 7.45792 7.85999 7.63259 7.68532C7.63826 7.67965 7.64384 7.67393 7.64932 7.66815L13.7382 1.5793C14.0874 1.23007 14.0874 0.663873 13.7382 0.314651C13.3889 -0.0345712 12.8227 -0.0345711 12.4735 0.314651L7.00004 5.78813L1.52656 0.314651C1.17734 -0.0345711 0.611139 -0.0345712 0.261916 0.314651Z" fill="#232323"/>
</svg>
