<svg width="14" height="8" viewBox="0 0 14 8" fill="none" xmlns="http://www.w3.org/2000/svg">
<path fill-rule="evenodd" clip-rule="evenodd" d="M13.7381 7.68535C14.0873 7.33613 14.0873 6.76993 13.7381 6.4207L7.64923 0.331854C7.64375 0.326072 7.63817 0.320345 7.6325 0.314676C7.45783 0.140007 7.22889 0.0527018 6.99996 0.052759C6.77103 0.0527023 6.54208 0.140008 6.36741 0.314676C6.36174 0.320345 6.35616 0.326072 6.35068 0.331854L0.26183 6.4207C-0.0873927 6.76992 -0.0873937 7.33613 0.261828 7.68535C0.611051 8.03457 1.17725 8.03457 1.52647 7.68535L6.99996 2.21187L12.4734 7.68535C12.8227 8.03457 13.3889 8.03457 13.7381 7.68535Z" fill="#232323"/>
</svg>
