<svg width="15" height="8" viewBox="0 0 15 8" fill="none" xmlns="http://www.w3.org/2000/svg">
<path fill-rule="evenodd" clip-rule="evenodd" d="M0.761916 0.314651C0.412694 0.663873 0.412695 1.23007 0.761917 1.5793L6.85077 7.66815C6.85625 7.67393 6.86183 7.67965 6.8675 7.68532C7.04217 7.85999 7.27111 7.9473 7.50004 7.94724C7.72897 7.9473 7.95792 7.85999 8.13259 7.68532C8.13826 7.67965 8.14384 7.67393 8.14932 7.66815L14.2382 1.5793C14.5874 1.23007 14.5874 0.663873 14.2382 0.314651C13.8889 -0.0345712 13.3227 -0.0345711 12.9735 0.314651L7.50004 5.78813L2.02656 0.314651C1.67734 -0.0345711 1.11114 -0.0345712 0.761916 0.314651Z" fill="#959595"/>
</svg>
