<svg width="23" height="24" viewBox="0 0 23 24" fill="none" xmlns="http://www.w3.org/2000/svg">
<path d="M8.8167 14.664L11.2892 16.8298C11.4042 16.9352 11.5863 16.9352 11.7013 16.8298L14.1738 14.664C14.8159 14.0985 14.9021 13.1402 14.3654 12.4694C13.8288 11.7985 12.8513 11.674 12.1709 12.1915L11.5 12.709L10.8196 12.201C10.1296 11.6835 9.1617 11.8081 8.62503 12.479C8.08837 13.1402 8.17462 14.1081 8.8167 14.664Z" stroke="#292D32" stroke-width="1.5" stroke-linecap="round" stroke-linejoin="round"/>
<path d="M21.0833 11.042V16.792C21.0833 20.6253 20.125 21.5837 16.2916 21.5837H6.70829C2.87496 21.5837 1.91663 20.6253 1.91663 16.792V7.20866C1.91663 3.37533 2.87496 2.41699 6.70829 2.41699H8.14579C9.58329 2.41699 9.89954 2.83866 10.4458 3.56699L11.8833 5.48366C12.2475 5.96283 12.4583 6.25033 13.4166 6.25033H16.2916C20.125 6.25033 21.0833 7.20866 21.0833 11.042Z" stroke="#292D32" stroke-width="1.5" stroke-miterlimit="10"/>
</svg>
