<svg width="23" height="23" viewBox="0 0 23 23" fill="none" xmlns="http://www.w3.org/2000/svg">
<path d="M8.81645 14.164L11.289 16.3298C11.404 16.4352 11.586 16.4352 11.701 16.3298L14.1735 14.164C14.8156 13.5985 14.9019 12.6402 14.3652 11.9694C13.8285 11.2985 12.851 11.174 12.1706 11.6915L11.4998 12.209L10.8194 11.701C10.1294 11.1835 9.16145 11.3081 8.62479 11.979C8.08812 12.6402 8.17437 13.6081 8.81645 14.164Z" stroke="#F9F9F9" stroke-width="1.5" stroke-linecap="round" stroke-linejoin="round"/>
<path d="M21.0832 10.542V16.292C21.0832 20.1253 20.1248 21.0837 16.2915 21.0837H6.70817C2.87484 21.0837 1.9165 20.1253 1.9165 16.292V6.70866C1.9165 2.87533 2.87484 1.91699 6.70817 1.91699H8.14567C9.58317 1.91699 9.89942 2.33866 10.4457 3.06699L11.8832 4.98366C12.2473 5.46283 12.4582 5.75033 13.4165 5.75033H16.2915C20.1248 5.75033 21.0832 6.70866 21.0832 10.542Z" stroke="#F9F9F9" stroke-width="1.5" stroke-miterlimit="10"/>
</svg>
