<svg width="61" height="61" viewBox="0 0 61 61" fill="none" xmlns="http://www.w3.org/2000/svg">
<path d="M30.5003 30.5007C37.5189 30.5007 43.2087 24.8109 43.2087 17.7923C43.2087 10.7737 37.5189 5.08398 30.5003 5.08398C23.4817 5.08398 17.792 10.7737 17.792 17.7923C17.792 24.8109 23.4817 30.5007 30.5003 30.5007Z" stroke="#232323" stroke-width="1.5" stroke-linecap="round" stroke-linejoin="round"/>
<path d="M48.8255 40.0062L39.8279 49.0038C39.4721 49.3597 39.1417 50.0204 39.0655 50.5033L38.5825 53.9345C38.4046 55.1799 39.2688 56.0441 40.5142 55.8662L43.9454 55.3833C44.4283 55.3071 45.1147 54.9767 45.4451 54.6208L54.4425 45.6234C55.9929 44.073 56.73 42.2683 54.4425 39.9808C52.1804 37.7187 50.3759 38.4558 48.8255 40.0062Z" stroke="#232323" stroke-width="1.5" stroke-miterlimit="10" stroke-linecap="round" stroke-linejoin="round"/>
<path d="M47.5293 41.3027C48.2918 44.0477 50.4267 46.1827 53.1717 46.9452" stroke="#232323" stroke-width="1.5" stroke-miterlimit="10" stroke-linecap="round" stroke-linejoin="round"/>
<path opacity="0.4" d="M8.66699 55.9167C8.66699 46.0804 18.4525 38.125 30.5 38.125C33.1433 38.125 35.6849 38.5062 38.0487 39.2179" stroke="#232323" stroke-width="1.5" stroke-linecap="round" stroke-linejoin="round"/>
</svg>
